# xmcd CD database file
#
# Track frame offsets:
#	150
#	9984
#	24888
#	36685
#	52093
#	64168
#	76313
#	87485
#	104612
#	116190
#	134469
#	145753
#	159380
#	173905
#	186201
#	197648
#	213533
#	230650
#
# Disc length: 3227 seconds
#
# Revision: 0
# Processed by: cddbd v1.5.2PL0 Copyright (c) Steve Scherf et al.
# Submitted via: CDex 1.70beta2
#
DISCID=060c9912
DTITLE=Lauren Hall - Jazz Favorites
DYEAR=1900
DGENRE=Jazz
TTITLE0=Que Sera Sera
TTITLE1=For Sentimental Reasons
TTITLE2=Lauren Hall - Fever
TTITLE3=What A Difference A Day Makes
TTITLE4=Autumn Leaves
TTITLE5=You Made Me Love You
TTITLE6=Side By Side
TTITLE7=Amoung My Souvenirs
TTITLE8=The Glory of Love
TTITLE9=When I Fall In Love
TTITLE10=All Of Me
TTITLE11=Fly Me To The Moon
TTITLE12=Old Cape Cod
TTITLE13=Chattanoogie Shoe Shine Boy
TTITLE14=Orange Colored Sky
TTITLE15=Too Young
TTITLE16=Cry Me A River
TTITLE17=Paper Moon
EXTD=
EXTT0=
EXTT1=
EXTT2=
EXTT3=
EXTT4=
EXTT5=
EXTT6=
EXTT7=
EXTT8=
EXTT9=
EXTT10=
EXTT11=
EXTT12=
EXTT13=
EXTT14=
EXTT15=
EXTT16=
EXTT17=
PLAYORDER=
